<svg id="f6e9cff5-0c6e-4e49-b90d-950dbee671a1" data-name="Calque 1" xmlns="http://www.w3.org/2000/svg" viewBox="0 0 1166 717"><path d="M315.64679,255.6209c20.39793,62.51923,74.4126,116.43993,148.57768,152.65025-.69289-9.88919-1.14629-19.84522-1.14629-29.91088,0-132.373,60.92756-250.476,156.22319-327.9295-6.13863-.37433-12.31011-.62529-18.54308-.62529C467.91277,49.80548,355.28642,136.07556,315.64679,255.6209Z" fill="#fff" opacity="0.49"/><path d="M456.5638,86.63915C235.55362,8.33316,58.73049-1.72375,27.17205,72.30921c-40.62932,95.31359,162.37938,306.4105,468.87238,456.05884s600.40775,181.17878,641.03707,85.86558c28.66108-67.23693-70.16052-173.34573-238.45165-289.93119" fill="none" stroke="#fff" stroke-linecap="round" stroke-miterlimit="10" stroke-width="0.2"/><path d="M898.66987,324.77468c167.36816,116.09456,265.586,221.83566,237.04465,288.79163-40.52925,95.07845-333.5457,63.45132-639.28379-85.82844S-11.99039,168.05551,28.53886,72.97669C59.978-.77642,235.9595,9.14219,456.01744,86.98759" fill="none" stroke="#fff" stroke-linecap="round" stroke-miterlimit="10" stroke-width="0.2"/><path d="M898.70988,325.24693c166.4452,115.60366,264.05922,220.977,235.63766,287.65207-40.42918,94.84368-332.54734,63.11985-637.53051-85.79131S-10.5235,168.48821,29.90568,73.64416C61.22553.17091,236.36538,9.95122,455.47108,87.336" fill="none" stroke="#fff" stroke-linecap="round" stroke-miterlimit="10" stroke-width="0.2"/><path d="M898.74989,325.71917c165.52224,115.11277,262.53247,220.11844,234.23067,286.51252-40.32911,94.60892-331.549,62.78839-635.77724-85.75418S-9.05661,168.92092,31.2725,74.31164C62.47306,1.11823,236.77126,10.76024,454.92472,87.68448" fill="none" stroke="#fff" stroke-linecap="round" stroke-miterlimit="10" stroke-width="0.2"/><path d="M898.78991,326.19142c164.59927,114.62186,261.00572,219.25982,232.82367,285.373-40.229,94.37416-330.55062,62.45693-634.024-85.717S-7.58972,169.35363,32.63932,74.97911c31.08126-72.91355,204.53782-63.40984,421.739,13.05382" fill="none" stroke="#fff" stroke-linecap="round" stroke-miterlimit="10" stroke-width="0.2"/><path d="M898.82992,326.66367c163.67631,114.131,259.479,218.40121,231.41668,284.23339-40.129,94.1394-329.55226,62.12547-632.27068-85.67991S-6.12284,169.78634,34.00614,75.64659C64.9681,3.01289,237.583,12.3783,453.832,88.38138" fill="none" stroke="#fff" stroke-linecap="round" stroke-miterlimit="10" stroke-width="0.2"/><path d="M898.86993,327.13591c162.75335,113.64006,257.95222,217.5426,230.00969,283.09384-40.0289,93.90464-328.5539,61.794-630.51741-85.64278S-4.65595,170.21905,35.373,76.31407c30.84267-72.35386,202.616-63.12674,417.9127,12.41575" fill="none" stroke="#fff" stroke-linecap="round" stroke-miterlimit="10" stroke-width="0.2"/><path d="M898.91,327.60816c161.83038,113.14916,256.42546,216.684,228.60269,281.95428-39.92883,93.66987-327.55554,61.46254-628.76413-85.60565S-3.18906,170.65176,36.73977,76.98154c30.72337-72.074,201.655-62.98519,415.99952,12.09673" fill="none" stroke="#fff" stroke-linecap="round" stroke-miterlimit="10" stroke-width="0.2"/><path d="M898.95,328.0804c160.90742,112.65827,254.89871,215.82538,227.1957,280.81472-39.82877,93.43512-326.55718,61.13108-627.01086-85.56851S-1.72217,171.08447,38.10659,77.649C68.71067,5.85487,238.80065,14.80538,452.19293,89.42671" fill="none" stroke="#fff" stroke-linecap="round" stroke-miterlimit="10" stroke-width="0.2"/><path d="M898.99,328.55265c159.98446,112.16736,253.372,214.96677,225.78871,279.67516-39.7287,93.20035-325.55882,60.79962-625.25758-85.53138S-.25529,171.51717,39.47341,78.31649C69.95819,6.80219,239.20653,15.61441,451.64657,89.77516" fill="none" stroke="#fff" stroke-linecap="round" stroke-miterlimit="10" stroke-width="0.2"/><path d="M899.03,329.02489c159.0615,111.67647,251.84522,214.10816,224.38171,278.53561-39.62862,92.96559-324.56045,60.46816-623.50429-85.49425S1.2116,171.94988,40.84023,78.984c30.36548-71.23445,198.77218-62.56053,410.26,11.13964" fill="none" stroke="#fff" stroke-linecap="round" stroke-miterlimit="10" stroke-width="0.2"/><path d="M899.07,329.49714c158.13853,111.18557,250.31846,213.24954,222.97471,277.396-39.52855,92.73084-323.56209,60.1367-621.751-85.45711S2.67849,172.38259,42.207,79.65145c30.24619-70.9546,197.81125-62.419,408.34682,10.8206" fill="none" stroke="#fff" stroke-linecap="round" stroke-miterlimit="10" stroke-width="0.2"/><path d="M899.11,329.96939c157.21557,110.69466,248.79171,212.39093,221.56772,276.25648-39.42848,92.49607-322.56373,59.80524-619.99774-85.42S4.14538,172.8153,43.57386,80.31892C73.70075,9.64418,240.42417,18.04149,450.0075,90.8205" fill="none" stroke="#fff" stroke-linecap="round" stroke-miterlimit="10" stroke-width="0.2"/><path d="M899.15,330.44163c156.29261,110.20377,247.265,211.53232,220.16073,275.11693-39.32841,92.26131-321.56537,59.47377-618.24446-85.38285S5.61227,173.248,44.94068,80.9864c30.0076-70.3949,195.88937-62.13588,404.52046,10.18254" fill="none" stroke="#fff" stroke-linecap="round" stroke-miterlimit="10" stroke-width="0.2"/><path d="M899.19,330.91388c155.36964,109.71286,245.73821,210.67371,218.75373,273.97736-39.22834,92.02656-320.567,59.14232-616.49119-85.34571S7.07915,173.68072,46.3075,81.65387c29.8883-70.115,194.92843-61.99433,402.60728,9.86352" fill="none" stroke="#fff" stroke-linecap="round" stroke-miterlimit="10" stroke-width="0.2"/><path d="M899.23005,331.38612c154.44668,109.222,244.21146,209.8151,217.34674,272.83781-39.12827,91.79179-319.56864,58.81085-614.73791-85.30858S8.546,174.11343,47.67432,82.32135c29.769-69.83519,193.96749-61.85278,400.6941,9.54449" fill="none" stroke="#fff" stroke-linecap="round" stroke-miterlimit="10" stroke-width="0.2"/><path d="M899.27006,331.85837c153.52372,108.73107,242.68471,208.95649,215.93975,271.69825-39.0282,91.557-318.57028,58.47939-612.98464-85.27145S10.01293,174.54614,49.04113,82.98882C78.69084,13.43348,242.04769,21.2776,447.82207,92.21428" fill="none" stroke="#fff" stroke-linecap="round" stroke-miterlimit="10" stroke-width="0.2"/><path d="M899.31007,332.33061c152.60076,108.24017,241.158,208.09788,214.53276,270.5587-38.92814,91.32226-317.57192,58.14792-611.23136-85.23433S11.47982,174.97884,50.408,83.6563c29.53041-69.27549,192.04562-61.56967,396.86776,8.90643" fill="none" stroke="#fff" stroke-linecap="round" stroke-miterlimit="10" stroke-width="0.2"/><path d="M899.35009,332.80286C1051.02788,440.55213,1138.9813,540.04213,1112.47585,602.222c-38.82807,91.08751-316.57356,57.81647-609.47808-85.19719S12.9467,175.41155,51.77477,84.32378c29.41112-68.99564,191.08468-61.42813,394.95458,8.58739" fill="none" stroke="#fff" stroke-linecap="round" stroke-miterlimit="10" stroke-width="0.2"/><path d="M899.3901,333.27511c150.75483,107.25836,238.10446,206.38065,211.71877,268.27957-38.728,90.85275-315.5752,57.485-607.72481-85.16006S14.41359,175.84426,53.14159,84.99125C82.43341,16.27547,243.26533,23.70468,446.183,93.25962" fill="none" stroke="#fff" stroke-linecap="round" stroke-miterlimit="10" stroke-width="0.2"/><path d="M899.43011,333.74735c149.83187,106.76747,236.57771,205.52205,210.31178,267.14-38.62793,90.618-314.57684,57.15354-605.97153-85.12293S15.88048,176.277,54.5084,85.65873c29.17253-68.43594,189.1628-61.145,391.12823,7.94934" fill="none" stroke="#fff" stroke-linecap="round" stroke-miterlimit="10" stroke-width="0.2"/><path d="M899.47013,334.2196c148.90889,106.27657,235.051,204.66343,208.90478,266.00045-38.52786,90.38323-313.57848,56.82208-604.21825-85.08579S17.34737,176.70968,55.87522,86.3262c29.05323-68.15608,188.20186-61.00346,389.21506,7.63031" fill="none" stroke="#fff" stroke-linecap="round" stroke-miterlimit="10" stroke-width="0.2"/><path d="M899.51014,334.69184c147.98593,105.78567,233.52421,203.80483,207.49779,264.8609-38.42779,90.14846-312.58012,56.49062-602.465-85.04866S18.81425,177.14239,57.242,86.99368C86.176,19.11745,244.483,26.13176,444.54392,94.305" fill="none" stroke="#fff" stroke-linecap="round" stroke-miterlimit="10" stroke-width="0.2"/><path d="M899.55015,335.16409c147.063,105.29477,231.99746,202.94621,206.09079,263.72134-38.32771,89.9137-311.58175,56.15915-600.71169-85.01153S20.28114,177.5751,58.60886,87.66116c28.81464-67.59639,186.28-60.72037,385.3887,6.99224" fill="none" stroke="#fff" stroke-linecap="round" stroke-miterlimit="10" stroke-width="0.2"/><path d="M899.59016,335.63633c146.14,104.80387,230.47071,202.08761,204.6838,262.58178-38.22764,89.67895-310.58339,55.8277-598.95842-84.97439S21.748,178.00781,59.97568,88.32863C88.671,21.0121,245.29472,27.74982,443.4512,95.00185" fill="none" stroke="#fff" stroke-linecap="round" stroke-miterlimit="10" stroke-width="0.2"/><path d="M899.63018,336.10858c145.217,104.313,228.944,201.229,203.2768,261.44222C1064.77941,686.995,793.322,653.047,505.70184,512.61354S23.21492,178.44051,61.34249,88.99611c28.576-67.03668,184.35811-60.43727,381.56235,6.35419" fill="none" stroke="#fff" stroke-linecap="round" stroke-miterlimit="10" stroke-width="0.2"/><path d="M899.67019,336.58082C1043.96427,440.4029,1127.0874,536.95121,1101.54,596.88349c-38.0275,89.20942-308.58667,55.16477-595.45186-84.90013S24.68181,178.87322,62.70931,89.66358c28.45675-66.75683,183.39717-60.29571,379.64917,6.03516" fill="none" stroke="#fff" stroke-linecap="round" stroke-miterlimit="10" stroke-width="0.2"/><path d="M899.7102,337.05307c143.37112,103.33117,225.89046,199.51177,200.46282,259.1631-37.92744,88.97466-307.58831,54.83331-593.69859-84.863S26.14869,179.30593,64.07613,90.33106c28.33745-66.477,182.43623-60.15416,377.736,5.71613" fill="none" stroke="#fff" stroke-linecap="round" stroke-miterlimit="10" stroke-width="0.2"/><path d="M899.75022,337.52532c142.44815,102.84027,224.3637,198.65316,199.05582,258.02354-37.82737,88.7399-306.58994,54.50185-591.94531-84.82586S27.61558,179.73864,65.443,90.99854c28.21816-66.19713,181.47529-60.01261,375.82282,5.3971" fill="none" stroke="#fff" stroke-linecap="round" stroke-miterlimit="10" stroke-width="0.2"/><path d="M899.79023,337.99756c141.52519,102.34938,222.837,197.79455,197.64883,256.884-37.7273,88.50514-305.59158,54.17038-590.192-84.78873S29.08247,180.17135,66.80977,91.666C94.90863,25.74874,247.32412,31.795,440.71941,96.74408" fill="none" stroke="#fff" stroke-linecap="round" stroke-miterlimit="10" stroke-width="0.2"/><path d="M899.83024,338.46981c140.60223,101.85847,221.31021,196.93594,196.24184,255.74443-37.62723,88.27037-304.59322,53.83892-588.43876-84.7516S30.54936,180.60406,68.17658,92.33349C96.15615,26.69606,247.73,32.604,440.17305,97.09253" fill="none" stroke="#fff" stroke-linecap="round" stroke-miterlimit="10" stroke-width="0.2"/><path d="M899.87025,338.94205c139.67927,101.36758,219.78346,196.07733,194.83485,254.60487-37.52716,88.03562-303.59486,53.50746-586.68548-84.71446S32.01624,181.03677,69.5434,93.001c27.86027-65.35757,178.59248-59.588,370.08329,4.44" fill="none" stroke="#fff" stroke-linecap="round" stroke-miterlimit="10" stroke-width="0.2"/><path d="M899.91027,339.4143C1038.66657,440.291,1118.167,534.633,1093.33812,592.87961c-37.42709,87.80085-302.5965,53.176-584.9322-84.67733S33.48313,181.46947,70.91022,93.66844c27.741-65.07772,177.63154-59.4464,368.17012,4.121" fill="none" stroke="#fff" stroke-linecap="round" stroke-miterlimit="10" stroke-width="0.2"/><path d="M899.95028,339.88654c137.83334,100.38578,216.73,194.36011,192.02086,252.32576-37.327,87.56609-301.59814,52.84453-583.17893-84.64021S34.95,181.90218,72.277,94.33591C99.89872,29.538,248.94764,35.03106,438.534,98.13787" fill="none" stroke="#fff" stroke-linecap="round" stroke-miterlimit="10" stroke-width="0.2"/><path d="M899.99029,340.35879c136.91038,99.89488,215.20321,193.5015,190.61387,251.18619-37.22695,87.33134-300.59978,52.51308-581.42565-84.60307S36.41691,182.33489,73.64386,95.00339c27.50238-64.518,175.70965-59.1633,364.34376,3.48292" fill="none" stroke="#fff" stroke-linecap="round" stroke-miterlimit="10" stroke-width="0.2"/><path d="M900.03031,340.831c135.98741,99.404,213.67645,192.64288,189.20687,250.04663-37.12688,87.09657-299.60142,52.18162-579.67238-84.56594S37.88379,182.7676,75.01067,95.67087c27.38309-64.23817,174.74872-59.02175,362.43059,3.16389" fill="none" stroke="#fff" stroke-linecap="round" stroke-miterlimit="10" stroke-width="0.2"/><path d="M900.07032,341.30328c135.06445,98.91308,212.1497,191.78428,187.79987,248.90708-37.02681,86.86181-298.60305,51.85015-577.91909-84.52881S39.35068,183.20031,76.37749,96.33834C103.64128,32.38,250.16527,37.45815,436.8949,99.1832" fill="none" stroke="#fff" stroke-linecap="round" stroke-miterlimit="10" stroke-width="0.2"/><path d="M900.11033,341.77553c134.14149,98.42217,210.623,190.92566,186.39288,247.76751-36.92674,86.627-297.60469,51.5187-576.16581-84.49167S40.81757,183.633,77.74431,97.00582c27.14449-63.67847,172.82684-58.73865,358.60424,2.52583" fill="none" stroke="#fff" stroke-linecap="round" stroke-miterlimit="10" stroke-width="0.2"/><path d="M900.15034,342.24777c133.21853,97.93128,209.09621,190.06706,184.98589,246.628C1048.30956,675.268,788.5299,640.063,510.72369,504.42119S42.28446,184.06573,79.11113,97.67329C106.13633,34.27468,250.977,39.0762,435.80219,99.8801" fill="none" stroke="#fff" stroke-linecap="round" stroke-miterlimit="10" stroke-width="0.2"/><path d="M900.19036,342.72c132.29556,97.44038,207.56945,189.20844,183.57889,245.4884C1047.04265,674.366,788.16128,639.06419,511.11,503.791S43.75135,184.49844,80.478,98.34077c26.9059-63.11876,170.905-58.45554,354.77788,1.88777" fill="none" stroke="#fff" stroke-linecap="round" stroke-miterlimit="10" stroke-width="0.2"/><path d="M900.23037,343.19226c131.3726,96.94948,206.0427,188.34984,182.1719,244.34885-36.62653,85.92276-294.60961,50.5243-570.906-84.38028S45.21823,184.93114,81.84476,99.00825c26.78661-62.83892,169.944-58.314,352.86471,1.56874" fill="none" stroke="#fff" stroke-linecap="round" stroke-miterlimit="10" stroke-width="0.2"/><path d="M900.27038,343.66451c130.44964,96.45858,204.516,187.49122,180.76491,243.20928-36.52646,85.688-293.61124,50.19285-569.15271-84.34314S46.68512,185.36385,83.21158,99.67572c26.66731-62.55906,168.98309-58.17244,350.95153,1.24971" fill="none" stroke="#fff" stroke-linecap="round" stroke-miterlimit="10" stroke-width="0.2"/><path d="M900.3104,344.13676c129.52667,95.96767,202.9892,186.6326,179.35791,242.06972-36.42639,85.45325-292.61288,49.86138-567.39943-84.306S48.152,185.79656,84.5784,100.3432c26.548-62.27921,168.02215-58.03089,349.03835.93068" fill="none" stroke="#fff" stroke-linecap="round" stroke-miterlimit="10" stroke-width="0.2"/><path d="M900.35041,344.609c128.60371,95.47678,201.46245,185.774,177.95092,240.93017-36.32632,85.21848-291.61452,49.52992-565.64616-84.26888S49.6189,186.22927,85.94522,101.01067c26.42872-61.99935,167.06121-57.88933,347.12518.61166" fill="none" stroke="#fff" stroke-linecap="round" stroke-miterlimit="10" stroke-width="0.2"/><path d="M900.39042,345.08125c127.68075,94.98588,199.9357,184.91538,176.54393,239.7906-36.22625,84.98373-290.61616,49.19846-563.89288-84.23174S51.08578,186.662,87.312,101.67815c26.30942-61.71951,166.10027-57.74779,345.212.29262" fill="none" stroke="#fff" stroke-linecap="round" stroke-miterlimit="10" stroke-width="0.2"/><path d="M900.43043,345.55349c126.75778,94.495,198.40895,184.05678,175.13694,238.651-36.12618,84.749-289.6178,48.867-562.1396-84.19461S52.55267,187.09469,88.67885,102.34562c26.19013-61.43965,165.13934-57.60623,343.29883-.0264" fill="none" stroke="#fff" stroke-linecap="round" stroke-miterlimit="10" stroke-width="0.2"/><path d="M900.47045,346.02574c125.83481,94.00408,196.8822,183.19816,173.72994,237.51149-36.02612,84.5142-288.61944,48.53553-560.38633-84.15748S54.01956,187.5274,90.04567,103.0131c26.07083-61.1598,164.1784-57.46468,341.38565-.34544" fill="none" stroke="#fff" stroke-linecap="round" stroke-miterlimit="10" stroke-width="0.2"/><path d="M900.51046,346.498c124.91185,93.51319,195.35545,182.33956,172.323,236.37193-35.92605,84.27945-287.62108,48.20408-558.633-84.12034S55.48645,187.96011,91.41249,103.68058c25.95153-60.88,163.21745-57.32313,339.47247-.66447" fill="none" stroke="#fff" stroke-linecap="round" stroke-miterlimit="10" stroke-width="0.2"/><path d="M900.55047,346.97023c123.98889,93.02228,193.8287,181.48094,170.916,235.23237-35.826,84.04468-286.62272,47.87261-556.87977-84.08321S56.95333,188.39281,92.77931,104.34805c25.83224-60.6001,162.25651-57.18158,337.5593-.98349" fill="none" stroke="#fff" stroke-linecap="round" stroke-miterlimit="10" stroke-width="0.2"/><path d="M900.59049,347.44247c123.06592,92.53139,192.30194,180.62234,169.50895,234.09282-35.7259,83.80992-285.62435,47.54115-555.12649-84.04609S58.42022,188.82552,94.14613,105.01553c25.71294-60.32025,161.29557-57.04,335.64612-1.30253" fill="none" stroke="#fff" stroke-linecap="round" stroke-miterlimit="10" stroke-width="0.2"/><path d="M900.6305,347.91472c122.143,92.04048,190.7752,179.76372,168.102,232.95325-35.62583,83.57516-284.626,47.20969-553.37321-84.009S59.88711,189.25823,95.51294,105.683c25.59365-60.0404,160.33464-56.89847,333.73295-1.62155" fill="none" stroke="#fff" stroke-linecap="round" stroke-miterlimit="10" stroke-width="0.2"/><path d="M900.67051,348.387c121.22,91.54958,189.24845,178.90511,166.695,231.81369-35.52576,83.3404-283.62763,46.87823-551.61994-83.97182S61.354,189.69094,96.87976,106.35048c25.47435-59.76055,159.3737-56.75693,331.81977-1.94058" fill="none" stroke="#fff" stroke-linecap="round" stroke-miterlimit="10" stroke-width="0.2"/><path d="M900.71052,348.85921c120.297,91.05869,187.7217,178.0465,165.288,230.67414-35.42569,83.10564-282.62927,46.54676-549.86666-83.93469S62.82089,190.12365,98.24658,107.018c25.35505-59.4807,158.41276-56.61538,329.90659-2.25962" fill="none" stroke="#fff" stroke-linecap="round" stroke-miterlimit="10" stroke-width="0.2"/><path d="M900.75054,349.33146c119.37407,90.56778,186.19494,177.18789,163.881,229.53458-35.32562,82.87087-281.63091,46.2153-548.11338-83.89756S64.28777,190.55636,99.6134,107.68543c25.23576-59.20084,157.45182-56.47382,327.99342-2.57864" fill="none" stroke="#fff" stroke-linecap="round" stroke-miterlimit="10" stroke-width="0.2"/><path d="M900.79055,349.8037c118.45111,90.07689,184.6682,176.32928,162.474,228.395C1028.039,660.83484,782.632,624.08256,516.90443,494.3383S65.75466,190.98907,100.98022,108.35291c25.11646-58.921,156.49088-56.33227,326.08024-2.89768" fill="none" stroke="#fff" stroke-linecap="round" stroke-miterlimit="10" stroke-width="0.2"/><path d="M900.83056,350.276c117.52815,89.586,183.14145,175.47067,161.067,227.25546-35.12549,82.40135-279.63418,45.55238-544.60683-83.82329S67.22155,191.42177,102.347,109.02038C127.3442,50.37924,257.877,52.82966,426.5141,105.80368" fill="none" stroke="#fff" stroke-linecap="round" stroke-miterlimit="10" stroke-width="0.2"/><path d="M900.87058,350.74819c116.60518,89.09509,181.61469,174.61206,159.66,226.11591C1025.50516,659.03069,781.89476,622.085,517.677,493.07794S68.68844,191.85448,103.71385,109.68786c24.87787-58.36129,154.569-56.04917,322.25389-3.53573" fill="none" stroke="#fff" stroke-linecap="round" stroke-miterlimit="10" stroke-width="0.2"/><path d="M900.91059,351.22044c115.68222,88.60419,180.08794,173.75345,158.253,224.97634-34.92535,81.93184-277.63746,44.88946-541.10028-83.749S70.15532,192.28719,105.08067,110.35533c24.75857-58.08144,153.60807-55.90761,320.34071-3.85476" fill="none" stroke="#fff" stroke-linecap="round" stroke-miterlimit="10" stroke-width="0.2"/><path d="M900.9506,351.69269c114.75926,88.11328,178.5612,172.89483,156.846,223.83678-34.82528,81.69707-276.6391,44.558-539.347-83.71189S71.62221,192.7199,106.44749,111.02281C131.08677,53.22122,259.09462,55.25675,424.875,106.849" fill="none" stroke="#fff" stroke-linecap="round" stroke-miterlimit="10" stroke-width="0.2"/><path d="M900.99061,352.16493c113.8363,87.62239,177.03445,172.03623,155.439,222.69723-34.72521,81.46231-275.64074,44.22653-537.59373-83.67476S73.0891,193.15261,107.81431,111.69029c24.52-57.52174,151.68619-55.62452,316.51436-4.49283" fill="none" stroke="#fff" stroke-linecap="round" stroke-miterlimit="10" stroke-width="0.2"/><path d="M901.03063,352.63718c112.91333,87.13148,175.50769,171.17761,154.032,221.55766-34.62514,81.22755-274.64238,43.89507-535.84045-83.63762S74.556,193.58532,109.18112,112.35776c24.40069-57.24188,150.72525-55.483,314.60119-4.81185" fill="none" stroke="#fff" stroke-linecap="round" stroke-miterlimit="10" stroke-width="0.2"/><path d="M901.07064,353.10942c111.99037,86.64059,173.98094,170.319,152.625,220.41811-34.52507,80.99279-273.644,43.56361-534.08717-83.60049S76.02287,194.018,110.54794,113.02524c24.28139-56.962,149.76431-55.34141,312.688-5.13088" fill="none" stroke="#fff" stroke-linecap="round" stroke-miterlimit="10" stroke-width="0.2"/><path d="M309.00958,421.72076c28.96338,118.53,128.24048,209.44947,251.1557,226.06427A421.93346,421.93346,0,0,1,489.284,525.04791,1647.2495,1647.2495,0,0,1,309.00958,421.72076Z" fill="#fff" opacity="0.49"/></svg>